# xmcd
#
# Track frame offsets:
#	180
#	17455
#	33349
#	52793
#	70251
#	89815
#	110853
#	128588
#	145676
#	161735
#	178148
#	195179
#	211509
#	232475
#	248290
#	267872
#	288061
#	306235
#
# Disc length: 4422 seconds
#
# Revision: 1
# Processed by: cddbd v1.5.2PL0 Copyright (c) Steve Scherf et al.
# Submitted via: audiograbber 1.83.01
#
DISCID=f3114412
DTITLE=SHANIA TWAIN - TOPS HIT MONTHLY
DYEAR=1900
DGENRE=KARAOKE
TTITLE0=BACKSTREET BOYS - Larger Than Life
TTITLE1=NYSYNC - Tearin' Up My Heart 
TTITLE2=LFO - Summer Girls
TTITLE3=BOZ TO MEN - Motownphilly
TTITLE4=98 DEGREES - Because Of You
TTITLE5=BOYZONE - No Matter What
TTITLE6=NEW KIDS - You've Got It (The Right Stuff)
TTITLE7=BACKSTREET BOYS - Quit Playing Games 
TTITLE8=NYSYNC -  You Got It 
TTITLE9=BOYS 2 MEN - I'll Make Love To You
TTITLE10=98 DEGREES -  I Do (Cherish You) 
TTITLE11=BACK STREET BOYS - I Want It That Way 
TTITLE12=NSYNC - God Must Have Spent) A Little More Time On You
TTITLE13=BOYS 2 MEN - Water Runs Dry 
TTITLE14=98 DEGREES  - The Hardest Thing
TTITLE15=BACKSTREET - I'll Never Break Your Heart
TTITLE16=NYSYNC - I Drive Myself Crazy
TTITLE17=BOYS 2 MEN - End Of The Road 
EXTD=
EXTT0=
EXTT1=
EXTT2=
EXTT3=
EXTT4=
EXTT5=
EXTT6=
EXTT7=
EXTT8=
EXTT9=
EXTT10=
EXTT11=
EXTT12=
EXTT13=
EXTT14=
EXTT15=
EXTT16=
EXTT17=
PLAYORDER=
